<svg width="512" height="512" viewBox="0 0 512 512" xmlns="http://www.w3.org/2000/svg" role="img" aria-labelledby="title desc">
  <title id="title">Trade News Icon Option 2</title>
  <desc id="desc">TN monogram with candlestick motif for favicon and app icon usage.</desc>
  <defs>
    <linearGradient id="iconBg" x1="0" y1="0" x2="1" y2="1">
      <stop offset="0%" stop-color="#22324A"/>
      <stop offset="100%" stop-color="#1E7A85"/>
    </linearGradient>
  </defs>

  <rect x="24" y="24" width="464" height="464" rx="92" fill="url(#iconBg)"/>

  <g transform="translate(108,112)" fill="#F3FBFF">
    <rect x="0" y="0" width="30" height="156" rx="8"/>
    <rect x="0" y="50" width="168" height="30" rx="8"/>
    <rect x="138" y="0" width="30" height="218" rx="8"/>
    <rect x="204" y="0" width="30" height="218" rx="8"/>
    <rect x="138" y="188" width="96" height="30" rx="8"/>
  </g>

  <g transform="translate(118,360)">
    <line x1="0" y1="34" x2="280" y2="34" stroke="#A5C4D0" stroke-width="3"/>
    <rect x="10" y="18" width="14" height="16" fill="#2BD28A"/>
    <line x1="17" y1="10" x2="17" y2="42" stroke="#2BD28A" stroke-width="3"/>
    <rect x="46" y="14" width="14" height="20" fill="#F06A78"/>
    <line x1="53" y1="8" x2="53" y2="44" stroke="#F06A78" stroke-width="3"/>
    <rect x="82" y="10" width="14" height="24" fill="#2BD28A"/>
    <line x1="89" y1="4" x2="89" y2="44" stroke="#2BD28A" stroke-width="3"/>
    <rect x="118" y="8" width="14" height="26" fill="#2BD28A"/>
    <line x1="125" y1="2" x2="125" y2="44" stroke="#2BD28A" stroke-width="3"/>
    <rect x="154" y="16" width="14" height="18" fill="#F06A78"/>
    <line x1="161" y1="10" x2="161" y2="44" stroke="#F06A78" stroke-width="3"/>
    <rect x="190" y="6" width="14" height="28" fill="#2BD28A"/>
    <line x1="197" y1="0" x2="197" y2="44" stroke="#2BD28A" stroke-width="3"/>
    <rect x="226" y="12" width="14" height="22" fill="#2BD28A"/>
    <line x1="233" y1="6" x2="233" y2="44" stroke="#2BD28A" stroke-width="3"/>
  </g>
</svg>
