<svg width="1400" height="360" viewBox="0 0 1400 360" xmlns="http://www.w3.org/2000/svg" role="img" aria-labelledby="title desc">
  <title id="title">Trade News Primary Logo Light</title>
  <desc id="desc">Trade News wordmark with TN monogram and candlestick motif for light backgrounds.</desc>
  <defs>
    <linearGradient id="tnStroke" x1="0" y1="0" x2="1" y2="1">
      <stop offset="0%" stop-color="#22324A"/>
      <stop offset="100%" stop-color="#1F7A86"/>
    </linearGradient>
  </defs>

  <g transform="translate(44,32)">
    <circle cx="148" cy="148" r="132" fill="#FFFFFF" stroke="#D6DFE6" stroke-width="4"/>

    <g transform="translate(70,78)" fill="url(#tnStroke)">
      <rect x="0" y="0" width="20" height="122" rx="6"/>
      <rect x="0" y="38" width="124" height="20" rx="6"/>
      <rect x="102" y="0" width="20" height="172" rx="6"/>
      <rect x="148" y="0" width="20" height="172" rx="6"/>
      <rect x="102" y="152" width="66" height="20" rx="6"/>
    </g>

    <g transform="translate(52,200)">
      <line x1="0" y1="30" x2="192" y2="30" stroke="#C4D0D8" stroke-width="2"/>
      <rect x="12" y="20" width="12" height="20" fill="#00A86B"/>
      <line x1="18" y1="10" x2="18" y2="48" stroke="#00A86B" stroke-width="2.5"/>
      <rect x="38" y="10" width="12" height="30" fill="#D1495B"/>
      <line x1="44" y1="2" x2="44" y2="50" stroke="#D1495B" stroke-width="2.5"/>
      <rect x="64" y="14" width="12" height="26" fill="#00A86B"/>
      <line x1="70" y1="8" x2="70" y2="50" stroke="#00A86B" stroke-width="2.5"/>
      <rect x="90" y="6" width="12" height="34" fill="#00A86B"/>
      <line x1="96" y1="0" x2="96" y2="50" stroke="#00A86B" stroke-width="2.5"/>
      <rect x="116" y="18" width="12" height="22" fill="#D1495B"/>
      <line x1="122" y1="12" x2="122" y2="50" stroke="#D1495B" stroke-width="2.5"/>
      <rect x="142" y="4" width="12" height="36" fill="#00A86B"/>
      <line x1="148" y1="0" x2="148" y2="50" stroke="#00A86B" stroke-width="2.5"/>
    </g>
  </g>

  <g transform="translate(390,104)">
    <text x="0" y="104" font-family="Space Grotesk, Segoe UI, Arial, sans-serif" font-size="116" font-weight="700" letter-spacing="0.6" fill="#1D2833">Trade News</text>
    <text x="4" y="158" font-family="Manrope, Segoe UI, Arial, sans-serif" font-size="30" font-weight="600" letter-spacing="3.2" fill="#2E6C77">REAL-TIME MARKET NARRATIVE</text>
  </g>
</svg>
